<svg width="89" height="119" viewBox="0 0 89 119" fill="none" xmlns="http://www.w3.org/2000/svg">
<rect width="88" height="88" transform="translate(0.5)" fill="white"/>
<g filter="url(#filter0_dddd_42_2300)">
<path fill-rule="evenodd" clip-rule="evenodd" d="M50.5904 44.0093C48.738 44.0093 46.9839 44.3906 45.5085 45.0205C50.6887 46.5456 54.3444 50.176 54.4264 54.4032C57.1148 54.0385 60 53.0273 60 50.2092C60 46.844 55.6886 44.0093 50.5904 44.0093Z" fill="white"/>
<path fill-rule="evenodd" clip-rule="evenodd" d="M50.5904 44.0093C48.738 44.0093 46.9839 44.3906 45.5085 45.0205C50.6887 46.5456 54.3444 50.176 54.4264 54.4032C57.1148 54.0385 60 53.0273 60 50.2092C60 46.844 55.6886 44.0093 50.5904 44.0093Z" fill="#F76300"/>
<path fill-rule="evenodd" clip-rule="evenodd" d="M50.5904 44.0093C48.738 44.0093 46.9839 44.3906 45.5085 45.0205C50.6887 46.5456 54.3444 50.176 54.4264 54.4032C57.1148 54.0385 60 53.0273 60 50.2092C60 46.844 55.6886 44.0093 50.5904 44.0093Z" fill="url(#paint0_radial_42_2300)" style="mix-blend-mode:overlay"/>
<path fill-rule="evenodd" clip-rule="evenodd" d="M50.5412 41.6222H50.5904C54.0821 41.6222 56.9181 38.7544 56.9181 35.2235C56.9181 31.6925 54.0821 28.8247 50.5904 28.8247C49.9019 28.8247 49.2461 28.9407 48.6232 29.1396C49.7543 30.8305 50.4101 32.8695 50.4101 35.0577C50.4101 37.3619 49.6724 39.5004 48.4265 41.2409C49.0822 41.4896 49.8035 41.6222 50.5412 41.6222Z" fill="white"/>
<path fill-rule="evenodd" clip-rule="evenodd" d="M50.5412 41.6222H50.5904C54.0821 41.6222 56.9181 38.7544 56.9181 35.2235C56.9181 31.6925 54.0821 28.8247 50.5904 28.8247C49.9019 28.8247 49.2461 28.9407 48.6232 29.1396C49.7543 30.8305 50.4101 32.8695 50.4101 35.0577C50.4101 37.3619 49.6724 39.5004 48.4265 41.2409C49.0822 41.4896 49.8035 41.6222 50.5412 41.6222Z" fill="#F76300"/>
<path fill-rule="evenodd" clip-rule="evenodd" d="M50.5412 41.6222H50.5904C54.0821 41.6222 56.9181 38.7544 56.9181 35.2235C56.9181 31.6925 54.0821 28.8247 50.5904 28.8247C49.9019 28.8247 49.2461 28.9407 48.6232 29.1396C49.7543 30.8305 50.4101 32.8695 50.4101 35.0577C50.4101 37.3619 49.6724 39.5004 48.4265 41.2409C49.0822 41.4896 49.8035 41.6222 50.5412 41.6222Z" fill="url(#paint1_radial_42_2300)" style="mix-blend-mode:overlay"/>
<path fill-rule="evenodd" clip-rule="evenodd" d="M39.9817 46.7266C33.4868 46.7266 28 50.3156 28 54.5643C28 59.4364 34.8375 60 39.9817 60C42.9455 60 51.9633 60 51.9633 54.5312C51.9633 50.3007 46.4765 46.7266 39.9817 46.7266Z" fill="white"/>
<path fill-rule="evenodd" clip-rule="evenodd" d="M39.9817 46.7266C33.4868 46.7266 28 50.3156 28 54.5643C28 59.4364 34.8375 60 39.9817 60C42.9455 60 51.9633 60 51.9633 54.5312C51.9633 50.3007 46.4765 46.7266 39.9817 46.7266Z" fill="#F76300"/>
<path fill-rule="evenodd" clip-rule="evenodd" d="M39.9817 46.7266C33.4868 46.7266 28 50.3156 28 54.5643C28 59.4364 34.8375 60 39.9817 60C42.9455 60 51.9633 60 51.9633 54.5312C51.9633 50.3007 46.4765 46.7266 39.9817 46.7266Z" fill="url(#paint2_radial_42_2300)" style="mix-blend-mode:overlay"/>
<path fill-rule="evenodd" clip-rule="evenodd" d="M39.9304 43.1279H39.9796C44.3779 43.1279 47.9549 39.5108 47.9549 35.0648C47.9549 30.6171 44.3779 27 39.9796 27C35.5846 27 32.0077 30.6171 32.0077 35.0615C31.9995 37.2082 32.8175 39.229 34.3142 40.7524C35.8109 42.2758 37.8043 43.1196 39.9304 43.1279Z" fill="white"/>
<path fill-rule="evenodd" clip-rule="evenodd" d="M39.9304 43.1279H39.9796C44.3779 43.1279 47.9549 39.5108 47.9549 35.0648C47.9549 30.6171 44.3779 27 39.9796 27C35.5846 27 32.0077 30.6171 32.0077 35.0615C31.9995 37.2082 32.8175 39.229 34.3142 40.7524C35.8109 42.2758 37.8043 43.1196 39.9304 43.1279Z" fill="#F76300"/>
<path fill-rule="evenodd" clip-rule="evenodd" d="M39.9304 43.1279H39.9796C44.3779 43.1279 47.9549 39.5108 47.9549 35.0648C47.9549 30.6171 44.3779 27 39.9796 27C35.5846 27 32.0077 30.6171 32.0077 35.0615C31.9995 37.2082 32.8175 39.229 34.3142 40.7524C35.8109 42.2758 37.8043 43.1196 39.9304 43.1279Z" fill="url(#paint3_radial_42_2300)" style="mix-blend-mode:overlay"/>
</g>
<path d="M1.60696 9.96228C1.60696 11.1849 2.59813 12.1761 3.8208 12.1761C5.04347 12.1761 6.03464 11.1849 6.03464 9.96228C6.03464 8.73961 5.04347 7.74844 3.8208 7.74844C2.59813 7.74844 1.60696 8.73961 1.60696 9.96228ZM19.7604 9.96228H20.1755V9.54719H19.7604V9.96228ZM19.7604 36.5283H19.3453V36.9434H19.7604V36.5283ZM3.8208 10.3774H19.7604V9.54719H3.8208V10.3774ZM19.3453 9.96228V36.5283H20.1755V9.96228H19.3453ZM19.7604 36.9434H27.0661V36.1132H19.7604V36.9434Z" fill="url(#paint4_linear_42_2300)"/>
<path d="M83.5189 80.2516C82.2963 80.2516 81.3051 79.2604 81.3051 78.0377C81.3051 76.8151 82.2963 75.8239 83.5189 75.8239C84.7416 75.8239 85.7328 76.8151 85.7328 78.0377C85.7328 79.2604 84.7416 80.2516 83.5189 80.2516ZM83.5189 62.0981L83.5189 61.683L83.934 61.683L83.934 62.0981L83.5189 62.0981ZM60.2736 62.0981L60.2736 62.5132L59.8585 62.5132L59.8585 62.0981L60.2736 62.0981ZM83.1038 78.0377L83.1038 62.0981L83.934 62.0981L83.934 78.0377L83.1038 78.0377ZM83.5189 62.5132L60.2736 62.5132L60.2736 61.683L83.5189 61.683L83.5189 62.5132ZM59.8585 62.0981L59.8585 54.7924L60.6887 54.7924L60.6887 62.0981L59.8585 62.0981Z" fill="url(#paint5_linear_42_2300)"/>
<path d="M85.7328 21.5849C85.7328 22.8076 84.7416 23.7987 83.5189 23.7987C82.2963 23.7987 81.3051 22.8076 81.3051 21.5849C81.3051 20.3622 82.2963 19.3711 83.5189 19.3711C84.7416 19.3711 85.7328 20.3622 85.7328 21.5849ZM67.5793 21.5849H67.1642V21.1698H67.5793V21.5849ZM67.5793 36.5283H67.9944V36.9434H67.5793V36.5283ZM83.5189 22H67.5793V21.1698H83.5189V22ZM67.9944 21.5849V36.5283H67.1642V21.5849H67.9944ZM67.5793 36.9434H60.2736V36.1132H67.5793V36.9434Z" fill="url(#paint6_linear_42_2300)"/>
<path d="M1.60696 76.3774C1.60696 75.1547 2.59813 74.1635 3.8208 74.1635C5.04347 74.1635 6.03464 75.1547 6.03464 76.3774C6.03464 77.6 5.04347 78.5912 3.8208 78.5912C2.59813 78.5912 1.60696 77.6 1.60696 76.3774ZM19.7604 76.3774H20.1755V76.7925H19.7604V76.3774ZM19.7604 61.434H19.3453V61.0189H19.7604V61.434ZM3.8208 75.9623H19.7604V76.7925H3.8208V75.9623ZM19.3453 76.3774V61.434H20.1755V76.3774H19.3453ZM19.7604 61.0189H27.0661V61.8491H19.7604V61.0189Z" fill="url(#paint7_linear_42_2300)"/>
<defs>
<filter id="filter0_dddd_42_2300" x="11.3962" y="25.3396" width="65.2075" height="92.7736" filterUnits="userSpaceOnUse" color-interpolation-filters="sRGB">
<feFlood flood-opacity="0" result="BackgroundImageFix"/>
<feColorMatrix in="SourceAlpha" type="matrix" values="0 0 0 0 0 0 0 0 0 0 0 0 0 0 0 0 0 0 127 0" result="hardAlpha"/>
<feOffset dy="3.32075"/>
<feGaussianBlur stdDeviation="2.49057"/>
<feColorMatrix type="matrix" values="0 0 0 0 0.980392 0 0 0 0 0.541176 0 0 0 0 0 0 0 0 0.26 0"/>
<feBlend mode="normal" in2="BackgroundImageFix" result="effect1_dropShadow_42_2300"/>
<feColorMatrix in="SourceAlpha" type="matrix" values="0 0 0 0 0 0 0 0 0 0 0 0 0 0 0 0 0 0 127 0" result="hardAlpha"/>
<feOffset dy="9.96226"/>
<feGaussianBlur stdDeviation="4.98113"/>
<feColorMatrix type="matrix" values="0 0 0 0 0.980392 0 0 0 0 0.541176 0 0 0 0 0 0 0 0 0.22 0"/>
<feBlend mode="normal" in2="effect1_dropShadow_42_2300" result="effect2_dropShadow_42_2300"/>
<feColorMatrix in="SourceAlpha" type="matrix" values="0 0 0 0 0 0 0 0 0 0 0 0 0 0 0 0 0 0 127 0" result="hardAlpha"/>
<feOffset dy="23.2453"/>
<feGaussianBlur stdDeviation="6.64151"/>
<feColorMatrix type="matrix" values="0 0 0 0 0.980392 0 0 0 0 0.541176 0 0 0 0 0 0 0 0 0.13 0"/>
<feBlend mode="normal" in2="effect2_dropShadow_42_2300" result="effect3_dropShadow_42_2300"/>
<feColorMatrix in="SourceAlpha" type="matrix" values="0 0 0 0 0 0 0 0 0 0 0 0 0 0 0 0 0 0 127 0" result="hardAlpha"/>
<feOffset dy="41.5094"/>
<feGaussianBlur stdDeviation="8.30189"/>
<feColorMatrix type="matrix" values="0 0 0 0 0.980392 0 0 0 0 0.541176 0 0 0 0 0 0 0 0 0.04 0"/>
<feBlend mode="normal" in2="effect3_dropShadow_42_2300" result="effect4_dropShadow_42_2300"/>
<feBlend mode="normal" in="SourceGraphic" in2="effect4_dropShadow_42_2300" result="shape"/>
</filter>
<radialGradient id="paint0_radial_42_2300" cx="0" cy="0" r="1" gradientUnits="userSpaceOnUse" gradientTransform="translate(44 40.2) rotate(65.556) scale(21.7495 26.6931)">
<stop stop-color="white" stop-opacity="0"/>
<stop offset="1" stop-color="white"/>
</radialGradient>
<radialGradient id="paint1_radial_42_2300" cx="0" cy="0" r="1" gradientUnits="userSpaceOnUse" gradientTransform="translate(44 40.2) rotate(65.556) scale(21.7495 26.6931)">
<stop stop-color="white" stop-opacity="0"/>
<stop offset="1" stop-color="white"/>
</radialGradient>
<radialGradient id="paint2_radial_42_2300" cx="0" cy="0" r="1" gradientUnits="userSpaceOnUse" gradientTransform="translate(44 40.2) rotate(65.556) scale(21.7495 26.6931)">
<stop stop-color="white" stop-opacity="0"/>
<stop offset="1" stop-color="white"/>
</radialGradient>
<radialGradient id="paint3_radial_42_2300" cx="0" cy="0" r="1" gradientUnits="userSpaceOnUse" gradientTransform="translate(44 40.2) rotate(65.556) scale(21.7495 26.6931)">
<stop stop-color="white" stop-opacity="0"/>
<stop offset="1" stop-color="white"/>
</radialGradient>
<linearGradient id="paint4_linear_42_2300" x1="3.8208" y1="9.96228" x2="32.3314" y2="28.3758" gradientUnits="userSpaceOnUse">
<stop stop-color="#D4D2E3"/>
<stop offset="1" stop-color="#D4D2E3" stop-opacity="0"/>
</linearGradient>
<linearGradient id="paint5_linear_42_2300" x1="81.0284" y1="78.0377" x2="65.9605" y2="51.5566" gradientUnits="userSpaceOnUse">
<stop stop-color="#D4D2E3"/>
<stop offset="1" stop-color="#D4D2E3" stop-opacity="0"/>
</linearGradient>
<linearGradient id="paint6_linear_42_2300" x1="83.5189" y1="29.0566" x2="53.6321" y2="36.5283" gradientUnits="userSpaceOnUse">
<stop stop-color="#D4D2E3"/>
<stop offset="1" stop-color="#D4D2E3" stop-opacity="0"/>
</linearGradient>
<linearGradient id="paint7_linear_42_2300" x1="3.8208" y1="76.3774" x2="27.0661" y2="61.434" gradientUnits="userSpaceOnUse">
<stop stop-color="#D4D2E3"/>
<stop offset="1" stop-color="#D4D2E3" stop-opacity="0"/>
</linearGradient>
</defs>
</svg>
