<svg width="89" height="119" viewBox="0 0 89 119" fill="none" xmlns="http://www.w3.org/2000/svg">
<rect width="88" height="88" transform="translate(0.5)" fill="white"/>
<g filter="url(#filter0_dddd_42_2275)">
<path d="M54.0586 47.5281C53.6183 47.964 53.416 48.5945 53.5163 49.2127L55.0274 57.7574C55.1549 58.4816 54.8557 59.2145 54.2625 59.6331C53.6812 60.0673 52.9078 60.1194 52.2738 59.772L44.7455 55.7602C44.4837 55.6178 44.193 55.5414 43.8956 55.5327H43.4349C43.2752 55.557 43.1188 55.6091 42.976 55.689L35.446 59.7199C35.0737 59.911 34.6522 59.9787 34.2391 59.911C33.2329 59.7164 32.5615 58.7369 32.7263 57.7036L34.2391 49.1589C34.3394 48.5354 34.1372 47.9015 33.6969 47.4586L27.559 41.3801C27.0457 40.8712 26.8672 40.1071 27.1018 39.4176C27.3295 38.7298 27.9109 38.2279 28.6129 38.115L37.0608 36.8629C37.7033 36.7951 38.2676 36.3957 38.5566 35.8052L42.2791 28.0073C42.3675 27.8336 42.4814 27.6738 42.619 27.5384L42.772 27.4168C42.8519 27.3265 42.9437 27.2518 43.0457 27.191L43.231 27.1216L43.5199 27H44.2355C44.8747 27.0677 45.4373 27.4585 45.7313 28.042L49.5031 35.8052C49.7751 36.3731 50.3037 36.7673 50.914 36.8629L59.3619 38.115C60.0758 38.2193 60.6724 38.7229 60.9087 39.4176C61.1313 40.114 60.9393 40.8782 60.4157 41.3801L54.0586 47.5281Z" fill="white"/>
<path d="M54.0586 47.5281C53.6183 47.964 53.416 48.5945 53.5163 49.2127L55.0274 57.7574C55.1549 58.4816 54.8557 59.2145 54.2625 59.6331C53.6812 60.0673 52.9078 60.1194 52.2738 59.772L44.7455 55.7602C44.4837 55.6178 44.193 55.5414 43.8956 55.5327H43.4349C43.2752 55.557 43.1188 55.6091 42.976 55.689L35.446 59.7199C35.0737 59.911 34.6522 59.9787 34.2391 59.911C33.2329 59.7164 32.5615 58.7369 32.7263 57.7036L34.2391 49.1589C34.3394 48.5354 34.1372 47.9015 33.6969 47.4586L27.559 41.3801C27.0457 40.8712 26.8672 40.1071 27.1018 39.4176C27.3295 38.7298 27.9109 38.2279 28.6129 38.115L37.0608 36.8629C37.7033 36.7951 38.2676 36.3957 38.5566 35.8052L42.2791 28.0073C42.3675 27.8336 42.4814 27.6738 42.619 27.5384L42.772 27.4168C42.8519 27.3265 42.9437 27.2518 43.0457 27.191L43.231 27.1216L43.5199 27H44.2355C44.8747 27.0677 45.4373 27.4585 45.7313 28.042L49.5031 35.8052C49.7751 36.3731 50.3037 36.7673 50.914 36.8629L59.3619 38.115C60.0758 38.2193 60.6724 38.7229 60.9087 39.4176C61.1313 40.114 60.9393 40.8782 60.4157 41.3801L54.0586 47.5281Z" fill="#F76300"/>
<path d="M54.0586 47.5281C53.6183 47.964 53.416 48.5945 53.5163 49.2127L55.0274 57.7574C55.1549 58.4816 54.8557 59.2145 54.2625 59.6331C53.6812 60.0673 52.9078 60.1194 52.2738 59.772L44.7455 55.7602C44.4837 55.6178 44.193 55.5414 43.8956 55.5327H43.4349C43.2752 55.557 43.1188 55.6091 42.976 55.689L35.446 59.7199C35.0737 59.911 34.6522 59.9787 34.2391 59.911C33.2329 59.7164 32.5615 58.7369 32.7263 57.7036L34.2391 49.1589C34.3394 48.5354 34.1372 47.9015 33.6969 47.4586L27.559 41.3801C27.0457 40.8712 26.8672 40.1071 27.1018 39.4176C27.3295 38.7298 27.9109 38.2279 28.6129 38.115L37.0608 36.8629C37.7033 36.7951 38.2676 36.3957 38.5566 35.8052L42.2791 28.0073C42.3675 27.8336 42.4814 27.6738 42.619 27.5384L42.772 27.4168C42.8519 27.3265 42.9437 27.2518 43.0457 27.191L43.231 27.1216L43.5199 27H44.2355C44.8747 27.0677 45.4373 27.4585 45.7313 28.042L49.5031 35.8052C49.7751 36.3731 50.3037 36.7673 50.914 36.8629L59.3619 38.115C60.0758 38.2193 60.6724 38.7229 60.9087 39.4176C61.1313 40.114 60.9393 40.8782 60.4157 41.3801L54.0586 47.5281Z" fill="url(#paint0_radial_42_2275)" style="mix-blend-mode:overlay"/>
</g>
<path d="M1.60696 9.96228C1.60696 11.1849 2.59813 12.1761 3.8208 12.1761C5.04347 12.1761 6.03464 11.1849 6.03464 9.96228C6.03464 8.73961 5.04347 7.74844 3.8208 7.74844C2.59813 7.74844 1.60696 8.73961 1.60696 9.96228ZM19.7604 9.96228H20.1755V9.54719H19.7604V9.96228ZM19.7604 36.5283H19.3453V36.9434H19.7604V36.5283ZM3.8208 10.3774H19.7604V9.54719H3.8208V10.3774ZM19.3453 9.96228V36.5283H20.1755V9.96228H19.3453ZM19.7604 36.9434H27.0661V36.1132H19.7604V36.9434Z" fill="url(#paint1_linear_42_2275)"/>
<path d="M83.5189 80.2516C82.2963 80.2516 81.3051 79.2604 81.3051 78.0377C81.3051 76.8151 82.2963 75.8239 83.5189 75.8239C84.7416 75.8239 85.7328 76.8151 85.7328 78.0377C85.7328 79.2604 84.7416 80.2516 83.5189 80.2516ZM83.5189 62.0981L83.5189 61.683L83.934 61.683L83.934 62.0981L83.5189 62.0981ZM60.2736 62.0981L60.2736 62.5132L59.8585 62.5132L59.8585 62.0981L60.2736 62.0981ZM83.1038 78.0377L83.1038 62.0981L83.934 62.0981L83.934 78.0377L83.1038 78.0377ZM83.5189 62.5132L60.2736 62.5132L60.2736 61.683L83.5189 61.683L83.5189 62.5132ZM59.8585 62.0981L59.8585 54.7924L60.6887 54.7924L60.6887 62.0981L59.8585 62.0981Z" fill="url(#paint2_linear_42_2275)"/>
<path d="M85.7328 21.5849C85.7328 22.8076 84.7416 23.7987 83.5189 23.7987C82.2963 23.7987 81.3051 22.8076 81.3051 21.5849C81.3051 20.3622 82.2963 19.3711 83.5189 19.3711C84.7416 19.3711 85.7328 20.3622 85.7328 21.5849ZM67.5793 21.5849H67.1642V21.1698H67.5793V21.5849ZM67.5793 36.5283H67.9944V36.9434H67.5793V36.5283ZM83.5189 22H67.5793V21.1698H83.5189V22ZM67.9944 21.5849V36.5283H67.1642V21.5849H67.9944ZM67.5793 36.9434H60.2736V36.1132H67.5793V36.9434Z" fill="url(#paint3_linear_42_2275)"/>
<path d="M1.60696 76.3774C1.60696 75.1547 2.59813 74.1635 3.8208 74.1635C5.04347 74.1635 6.03464 75.1547 6.03464 76.3774C6.03464 77.6 5.04347 78.5912 3.8208 78.5912C2.59813 78.5912 1.60696 77.6 1.60696 76.3774ZM19.7604 76.3774H20.1755V76.7925H19.7604V76.3774ZM19.7604 61.434H19.3453V61.0189H19.7604V61.434ZM3.8208 75.9623H19.7604V76.7925H3.8208V75.9623ZM19.3453 76.3774V61.434H20.1755V76.3774H19.3453ZM19.7604 61.0189H27.0661V61.8491H19.7604V61.0189Z" fill="url(#paint4_linear_42_2275)"/>
<defs>
<filter id="filter0_dddd_42_2275" x="10.3962" y="25.3396" width="67.2075" height="92.7736" filterUnits="userSpaceOnUse" color-interpolation-filters="sRGB">
<feFlood flood-opacity="0" result="BackgroundImageFix"/>
<feColorMatrix in="SourceAlpha" type="matrix" values="0 0 0 0 0 0 0 0 0 0 0 0 0 0 0 0 0 0 127 0" result="hardAlpha"/>
<feOffset dy="3.32075"/>
<feGaussianBlur stdDeviation="2.49057"/>
<feColorMatrix type="matrix" values="0 0 0 0 0.980392 0 0 0 0 0.541176 0 0 0 0 0 0 0 0 0.26 0"/>
<feBlend mode="normal" in2="BackgroundImageFix" result="effect1_dropShadow_42_2275"/>
<feColorMatrix in="SourceAlpha" type="matrix" values="0 0 0 0 0 0 0 0 0 0 0 0 0 0 0 0 0 0 127 0" result="hardAlpha"/>
<feOffset dy="9.96226"/>
<feGaussianBlur stdDeviation="4.98113"/>
<feColorMatrix type="matrix" values="0 0 0 0 0.980392 0 0 0 0 0.541176 0 0 0 0 0 0 0 0 0.22 0"/>
<feBlend mode="normal" in2="effect1_dropShadow_42_2275" result="effect2_dropShadow_42_2275"/>
<feColorMatrix in="SourceAlpha" type="matrix" values="0 0 0 0 0 0 0 0 0 0 0 0 0 0 0 0 0 0 127 0" result="hardAlpha"/>
<feOffset dy="23.2453"/>
<feGaussianBlur stdDeviation="6.64151"/>
<feColorMatrix type="matrix" values="0 0 0 0 0.980392 0 0 0 0 0.541176 0 0 0 0 0 0 0 0 0.13 0"/>
<feBlend mode="normal" in2="effect2_dropShadow_42_2275" result="effect3_dropShadow_42_2275"/>
<feColorMatrix in="SourceAlpha" type="matrix" values="0 0 0 0 0 0 0 0 0 0 0 0 0 0 0 0 0 0 127 0" result="hardAlpha"/>
<feOffset dy="41.5094"/>
<feGaussianBlur stdDeviation="8.30189"/>
<feColorMatrix type="matrix" values="0 0 0 0 0.980392 0 0 0 0 0.541176 0 0 0 0 0 0 0 0 0.04 0"/>
<feBlend mode="normal" in2="effect3_dropShadow_42_2275" result="effect4_dropShadow_42_2275"/>
<feBlend mode="normal" in="SourceGraphic" in2="effect4_dropShadow_42_2275" result="shape"/>
</filter>
<radialGradient id="paint0_radial_42_2275" cx="0" cy="0" r="1" gradientUnits="userSpaceOnUse" gradientTransform="translate(44 40.2) rotate(64.2216) scale(21.9882 28.0535)">
<stop stop-color="white" stop-opacity="0"/>
<stop offset="1" stop-color="white"/>
</radialGradient>
<linearGradient id="paint1_linear_42_2275" x1="3.8208" y1="9.96228" x2="32.3314" y2="28.3758" gradientUnits="userSpaceOnUse">
<stop stop-color="#D4D2E3"/>
<stop offset="1" stop-color="#D4D2E3" stop-opacity="0"/>
</linearGradient>
<linearGradient id="paint2_linear_42_2275" x1="81.0284" y1="78.0377" x2="65.9605" y2="51.5566" gradientUnits="userSpaceOnUse">
<stop stop-color="#D4D2E3"/>
<stop offset="1" stop-color="#D4D2E3" stop-opacity="0"/>
</linearGradient>
<linearGradient id="paint3_linear_42_2275" x1="83.5189" y1="29.0566" x2="53.6321" y2="36.5283" gradientUnits="userSpaceOnUse">
<stop stop-color="#D4D2E3"/>
<stop offset="1" stop-color="#D4D2E3" stop-opacity="0"/>
</linearGradient>
<linearGradient id="paint4_linear_42_2275" x1="3.8208" y1="76.3774" x2="27.0661" y2="61.434" gradientUnits="userSpaceOnUse">
<stop stop-color="#D4D2E3"/>
<stop offset="1" stop-color="#D4D2E3" stop-opacity="0"/>
</linearGradient>
</defs>
</svg>
