<svg width="89" height="119" viewBox="0 0 89 119" fill="none" xmlns="http://www.w3.org/2000/svg">
<rect width="88" height="88" transform="translate(0.5)" fill="white"/>
<g filter="url(#filter0_dddd_42_2312)">
<path fill-rule="evenodd" clip-rule="evenodd" d="M53.968 41.1084H53.9217C53.1556 41.0809 52.5542 40.4454 52.5801 39.6849C52.6393 37.9381 51.7788 36.8048 50.278 36.6523C49.5156 36.5752 48.9604 35.8992 49.0382 35.1425C49.1177 34.3875 49.8024 33.831 50.5611 33.9118C53.5368 34.213 55.4632 36.5697 55.354 39.7767C55.3281 40.5225 54.7119 41.1084 53.968 41.1084ZM53.8162 27.4903C50.6333 26.4801 46.2272 26.8989 43.4773 29.9957C40.5886 26.9209 36.3324 26.4746 33.1717 27.4922C25.9269 29.8065 23.6674 38.1383 25.7289 44.5286C28.9821 54.5777 39.7985 60 43.5032 60C46.8101 60 58.0558 54.6806 61.272 44.5286C63.3335 38.1401 61.0685 29.8084 53.8162 27.4903Z" fill="white"/>
<path fill-rule="evenodd" clip-rule="evenodd" d="M53.968 41.1084H53.9217C53.1556 41.0809 52.5542 40.4454 52.5801 39.6849C52.6393 37.9381 51.7788 36.8048 50.278 36.6523C49.5156 36.5752 48.9604 35.8992 49.0382 35.1425C49.1177 34.3875 49.8024 33.831 50.5611 33.9118C53.5368 34.213 55.4632 36.5697 55.354 39.7767C55.3281 40.5225 54.7119 41.1084 53.968 41.1084ZM53.8162 27.4903C50.6333 26.4801 46.2272 26.8989 43.4773 29.9957C40.5886 26.9209 36.3324 26.4746 33.1717 27.4922C25.9269 29.8065 23.6674 38.1383 25.7289 44.5286C28.9821 54.5777 39.7985 60 43.5032 60C46.8101 60 58.0558 54.6806 61.272 44.5286C63.3335 38.1401 61.0685 29.8084 53.8162 27.4903Z" fill="#F76300"/>
<path fill-rule="evenodd" clip-rule="evenodd" d="M53.968 41.1084H53.9217C53.1556 41.0809 52.5542 40.4454 52.5801 39.6849C52.6393 37.9381 51.7788 36.8048 50.278 36.6523C49.5156 36.5752 48.9604 35.8992 49.0382 35.1425C49.1177 34.3875 49.8024 33.831 50.5611 33.9118C53.5368 34.213 55.4632 36.5697 55.354 39.7767C55.3281 40.5225 54.7119 41.1084 53.968 41.1084ZM53.8162 27.4903C50.6333 26.4801 46.2272 26.8989 43.4773 29.9957C40.5886 26.9209 36.3324 26.4746 33.1717 27.4922C25.9269 29.8065 23.6674 38.1383 25.7289 44.5286C28.9821 54.5777 39.7985 60 43.5032 60C46.8101 60 58.0558 54.6806 61.272 44.5286C63.3335 38.1401 61.0685 29.8084 53.8162 27.4903Z" fill="url(#paint0_radial_42_2312)" style="mix-blend-mode:overlay"/>
</g>
<path d="M1.60696 9.96228C1.60696 11.1849 2.59813 12.1761 3.8208 12.1761C5.04347 12.1761 6.03464 11.1849 6.03464 9.96228C6.03464 8.73961 5.04347 7.74844 3.8208 7.74844C2.59813 7.74844 1.60696 8.73961 1.60696 9.96228ZM19.7604 9.96228H20.1755V9.54719H19.7604V9.96228ZM19.7604 36.5283H19.3453V36.9434H19.7604V36.5283ZM3.8208 10.3774H19.7604V9.54719H3.8208V10.3774ZM19.3453 9.96228V36.5283H20.1755V9.96228H19.3453ZM19.7604 36.9434H27.0661V36.1132H19.7604V36.9434Z" fill="url(#paint1_linear_42_2312)"/>
<path d="M83.5188 80.2516C82.2961 80.2516 81.305 79.2604 81.305 78.0377C81.305 76.8151 82.2961 75.8239 83.5188 75.8239C84.7415 75.8239 85.7326 76.8151 85.7326 78.0377C85.7326 79.2604 84.7415 80.2516 83.5188 80.2516ZM83.5188 62.0981L83.5188 61.683L83.9339 61.683L83.9339 62.0981L83.5188 62.0981ZM60.2735 62.0981L60.2735 62.5132L59.8584 62.5132L59.8584 62.0981L60.2735 62.0981ZM83.1037 78.0377L83.1037 62.0981L83.9339 62.0981L83.9339 78.0377L83.1037 78.0377ZM83.5188 62.5132L60.2735 62.5132L60.2735 61.683L83.5188 61.683L83.5188 62.5132ZM59.8584 62.0981L59.8584 54.7924L60.6886 54.7924L60.6886 62.0981L59.8584 62.0981Z" fill="url(#paint2_linear_42_2312)"/>
<path d="M85.7326 21.5849C85.7326 22.8076 84.7415 23.7987 83.5188 23.7987C82.2961 23.7987 81.305 22.8076 81.305 21.5849C81.305 20.3622 82.2961 19.3711 83.5188 19.3711C84.7415 19.3711 85.7326 20.3622 85.7326 21.5849ZM67.5792 21.5849H67.1641V21.1698H67.5792V21.5849ZM67.5792 36.5283H67.9943V36.9434H67.5792V36.5283ZM83.5188 22H67.5792V21.1698H83.5188V22ZM67.9943 21.5849V36.5283H67.1641V21.5849H67.9943ZM67.5792 36.9434H60.2735V36.1132H67.5792V36.9434Z" fill="url(#paint3_linear_42_2312)"/>
<path d="M1.60696 76.3774C1.60696 75.1547 2.59813 74.1635 3.8208 74.1635C5.04347 74.1635 6.03464 75.1547 6.03464 76.3774C6.03464 77.6 5.04347 78.5912 3.8208 78.5912C2.59813 78.5912 1.60696 77.6 1.60696 76.3774ZM19.7604 76.3774H20.1755V76.7925H19.7604V76.3774ZM19.7604 61.434H19.3453V61.0189H19.7604V61.434ZM3.8208 75.9623H19.7604V76.7925H3.8208V75.9623ZM19.3453 76.3774V61.434H20.1755V76.3774H19.3453ZM19.7604 61.0189H27.0661V61.8491H19.7604V61.0189Z" fill="url(#paint4_linear_42_2312)"/>
<defs>
<filter id="filter0_dddd_42_2312" x="8.39623" y="25.3396" width="70.2075" height="92.7736" filterUnits="userSpaceOnUse" color-interpolation-filters="sRGB">
<feFlood flood-opacity="0" result="BackgroundImageFix"/>
<feColorMatrix in="SourceAlpha" type="matrix" values="0 0 0 0 0 0 0 0 0 0 0 0 0 0 0 0 0 0 127 0" result="hardAlpha"/>
<feOffset dy="3.32075"/>
<feGaussianBlur stdDeviation="2.49057"/>
<feColorMatrix type="matrix" values="0 0 0 0 0.980392 0 0 0 0 0.541176 0 0 0 0 0 0 0 0 0.26 0"/>
<feBlend mode="normal" in2="BackgroundImageFix" result="effect1_dropShadow_42_2312"/>
<feColorMatrix in="SourceAlpha" type="matrix" values="0 0 0 0 0 0 0 0 0 0 0 0 0 0 0 0 0 0 127 0" result="hardAlpha"/>
<feOffset dy="9.96226"/>
<feGaussianBlur stdDeviation="4.98113"/>
<feColorMatrix type="matrix" values="0 0 0 0 0.980392 0 0 0 0 0.541176 0 0 0 0 0 0 0 0 0.22 0"/>
<feBlend mode="normal" in2="effect1_dropShadow_42_2312" result="effect2_dropShadow_42_2312"/>
<feColorMatrix in="SourceAlpha" type="matrix" values="0 0 0 0 0 0 0 0 0 0 0 0 0 0 0 0 0 0 127 0" result="hardAlpha"/>
<feOffset dy="23.2453"/>
<feGaussianBlur stdDeviation="6.64151"/>
<feColorMatrix type="matrix" values="0 0 0 0 0.980392 0 0 0 0 0.541176 0 0 0 0 0 0 0 0 0.13 0"/>
<feBlend mode="normal" in2="effect2_dropShadow_42_2312" result="effect3_dropShadow_42_2312"/>
<feColorMatrix in="SourceAlpha" type="matrix" values="0 0 0 0 0 0 0 0 0 0 0 0 0 0 0 0 0 0 127 0" result="hardAlpha"/>
<feOffset dy="41.5094"/>
<feGaussianBlur stdDeviation="8.30189"/>
<feColorMatrix type="matrix" values="0 0 0 0 0.980392 0 0 0 0 0.541176 0 0 0 0 0 0 0 0 0.04 0"/>
<feBlend mode="normal" in2="effect3_dropShadow_42_2312" result="effect4_dropShadow_42_2312"/>
<feBlend mode="normal" in="SourceGraphic" in2="effect4_dropShadow_42_2312" result="shape"/>
</filter>
<radialGradient id="paint0_radial_42_2312" cx="0" cy="0" r="1" gradientUnits="userSpaceOnUse" gradientTransform="translate(43.5 40.2) rotate(62.275) scale(22.3681 30.0103)">
<stop stop-color="white" stop-opacity="0"/>
<stop offset="1" stop-color="white"/>
</radialGradient>
<linearGradient id="paint1_linear_42_2312" x1="3.8208" y1="9.96228" x2="32.3314" y2="28.3758" gradientUnits="userSpaceOnUse">
<stop stop-color="#D4D2E3"/>
<stop offset="1" stop-color="#D4D2E3" stop-opacity="0"/>
</linearGradient>
<linearGradient id="paint2_linear_42_2312" x1="81.0282" y1="78.0377" x2="65.9604" y2="51.5566" gradientUnits="userSpaceOnUse">
<stop stop-color="#D4D2E3"/>
<stop offset="1" stop-color="#D4D2E3" stop-opacity="0"/>
</linearGradient>
<linearGradient id="paint3_linear_42_2312" x1="83.5188" y1="29.0566" x2="53.632" y2="36.5283" gradientUnits="userSpaceOnUse">
<stop stop-color="#D4D2E3"/>
<stop offset="1" stop-color="#D4D2E3" stop-opacity="0"/>
</linearGradient>
<linearGradient id="paint4_linear_42_2312" x1="3.8208" y1="76.3774" x2="27.0661" y2="61.434" gradientUnits="userSpaceOnUse">
<stop stop-color="#D4D2E3"/>
<stop offset="1" stop-color="#D4D2E3" stop-opacity="0"/>
</linearGradient>
</defs>
</svg>
