<svg width="89" height="119" viewBox="0 0 89 119" fill="none" xmlns="http://www.w3.org/2000/svg">
<rect width="88" height="88" transform="translate(0.5)" fill="white"/>
<g filter="url(#filter0_dddd_42_2288)">
<path fill-rule="evenodd" clip-rule="evenodd" d="M55.1288 43.1351C55.1288 43.8908 54.4946 44.5042 53.7131 44.5042C52.9316 44.5042 52.2973 43.8908 52.2973 43.1351C52.2973 42.3794 52.9316 41.766 53.7131 41.766C54.4946 41.766 55.1288 42.3794 55.1288 43.1351ZM50.0265 43.2446C50.0265 45.0682 51.563 46.5523 53.4488 46.5523H61.8679C61.9471 45.5885 62 44.5863 62 43.5002C62 42.2187 61.9339 41.045 61.8226 39.9333H53.4488C51.563 39.9333 50.0265 41.4192 50.0265 43.2446Z" fill="white"/>
<path fill-rule="evenodd" clip-rule="evenodd" d="M55.1288 43.1351C55.1288 43.8908 54.4946 44.5042 53.7131 44.5042C52.9316 44.5042 52.2973 43.8908 52.2973 43.1351C52.2973 42.3794 52.9316 41.766 53.7131 41.766C54.4946 41.766 55.1288 42.3794 55.1288 43.1351ZM50.0265 43.2446C50.0265 45.0682 51.563 46.5523 53.4488 46.5523H61.8679C61.9471 45.5885 62 44.5863 62 43.5002C62 42.2187 61.9339 41.045 61.8226 39.9333H53.4488C51.563 39.9333 50.0265 41.4192 50.0265 43.2446Z" fill="#F76300"/>
<path fill-rule="evenodd" clip-rule="evenodd" d="M55.1288 43.1351C55.1288 43.8908 54.4946 44.5042 53.7131 44.5042C52.9316 44.5042 52.2973 43.8908 52.2973 43.1351C52.2973 42.3794 52.9316 41.766 53.7131 41.766C54.4946 41.766 55.1288 42.3794 55.1288 43.1351ZM50.0265 43.2446C50.0265 45.0682 51.563 46.5523 53.4488 46.5523H61.8679C61.9471 45.5885 62 44.5863 62 43.5002C62 42.2187 61.9339 41.045 61.8226 39.9333H53.4488C51.563 39.9333 50.0265 41.4192 50.0265 43.2446Z" fill="url(#paint0_radial_42_2288)" style="mix-blend-mode:overlay"/>
<path fill-rule="evenodd" clip-rule="evenodd" d="M42.8423 37.3684H35.1784C34.3969 37.3684 33.7626 36.7551 33.7626 35.9993C33.7626 35.2436 34.3969 34.6303 35.1784 34.6303H42.8423C43.6238 34.6303 44.2581 35.2436 44.2581 35.9993C44.2581 36.7551 43.6238 37.3684 42.8423 37.3684ZM53.4492 49.2902C50.0004 49.2902 47.1953 46.5777 47.1953 43.2444C47.1953 39.9094 50.0004 37.195 53.4492 37.195H61.3963C59.7389 29.7947 54.4666 27 43.5011 27C29.8419 27 25 31.319 25 43.5C25 55.6829 29.8419 60 43.5011 60C54.7177 60 59.9806 57.0793 61.5058 49.2902H53.4492Z" fill="white"/>
<path fill-rule="evenodd" clip-rule="evenodd" d="M42.8423 37.3684H35.1784C34.3969 37.3684 33.7626 36.7551 33.7626 35.9993C33.7626 35.2436 34.3969 34.6303 35.1784 34.6303H42.8423C43.6238 34.6303 44.2581 35.2436 44.2581 35.9993C44.2581 36.7551 43.6238 37.3684 42.8423 37.3684ZM53.4492 49.2902C50.0004 49.2902 47.1953 46.5777 47.1953 43.2444C47.1953 39.9094 50.0004 37.195 53.4492 37.195H61.3963C59.7389 29.7947 54.4666 27 43.5011 27C29.8419 27 25 31.319 25 43.5C25 55.6829 29.8419 60 43.5011 60C54.7177 60 59.9806 57.0793 61.5058 49.2902H53.4492Z" fill="#F76300"/>
<path fill-rule="evenodd" clip-rule="evenodd" d="M42.8423 37.3684H35.1784C34.3969 37.3684 33.7626 36.7551 33.7626 35.9993C33.7626 35.2436 34.3969 34.6303 35.1784 34.6303H42.8423C43.6238 34.6303 44.2581 35.2436 44.2581 35.9993C44.2581 36.7551 43.6238 37.3684 42.8423 37.3684ZM53.4492 49.2902C50.0004 49.2902 47.1953 46.5777 47.1953 43.2444C47.1953 39.9094 50.0004 37.195 53.4492 37.195H61.3963C59.7389 29.7947 54.4666 27 43.5011 27C29.8419 27 25 31.319 25 43.5C25 55.6829 29.8419 60 43.5011 60C54.7177 60 59.9806 57.0793 61.5058 49.2902H53.4492Z" fill="url(#paint1_radial_42_2288)" style="mix-blend-mode:overlay"/>
</g>
<path d="M1.60696 9.96228C1.60696 11.1849 2.59813 12.1761 3.8208 12.1761C5.04347 12.1761 6.03464 11.1849 6.03464 9.96228C6.03464 8.73961 5.04347 7.74844 3.8208 7.74844C2.59813 7.74844 1.60696 8.73961 1.60696 9.96228ZM19.7604 9.96228H20.1755V9.54719H19.7604V9.96228ZM19.7604 36.5283H19.3453V36.9434H19.7604V36.5283ZM3.8208 10.3774H19.7604V9.54719H3.8208V10.3774ZM19.3453 9.96228V36.5283H20.1755V9.96228H19.3453ZM19.7604 36.9434H27.0661V36.1132H19.7604V36.9434Z" fill="url(#paint2_linear_42_2288)"/>
<path d="M83.5189 80.2516C82.2963 80.2516 81.3051 79.2604 81.3051 78.0377C81.3051 76.8151 82.2963 75.8239 83.5189 75.8239C84.7416 75.8239 85.7328 76.8151 85.7328 78.0377C85.7328 79.2604 84.7416 80.2516 83.5189 80.2516ZM83.5189 62.0981L83.5189 61.683L83.934 61.683L83.934 62.0981L83.5189 62.0981ZM60.2736 62.0981L60.2736 62.5132L59.8585 62.5132L59.8585 62.0981L60.2736 62.0981ZM83.1038 78.0377L83.1038 62.0981L83.934 62.0981L83.934 78.0377L83.1038 78.0377ZM83.5189 62.5132L60.2736 62.5132L60.2736 61.683L83.5189 61.683L83.5189 62.5132ZM59.8585 62.0981L59.8585 54.7924L60.6887 54.7924L60.6887 62.0981L59.8585 62.0981Z" fill="url(#paint3_linear_42_2288)"/>
<path d="M85.7328 21.5849C85.7328 22.8076 84.7416 23.7987 83.5189 23.7987C82.2963 23.7987 81.3051 22.8076 81.3051 21.5849C81.3051 20.3622 82.2963 19.3711 83.5189 19.3711C84.7416 19.3711 85.7328 20.3622 85.7328 21.5849ZM67.5793 21.5849H67.1642V21.1698H67.5793V21.5849ZM67.5793 36.5283H67.9944V36.9434H67.5793V36.5283ZM83.5189 22H67.5793V21.1698H83.5189V22ZM67.9944 21.5849V36.5283H67.1642V21.5849H67.9944ZM67.5793 36.9434H60.2736V36.1132H67.5793V36.9434Z" fill="url(#paint4_linear_42_2288)"/>
<path d="M1.60696 76.3774C1.60696 75.1547 2.59813 74.1635 3.8208 74.1635C5.04347 74.1635 6.03464 75.1547 6.03464 76.3774C6.03464 77.6 5.04347 78.5912 3.8208 78.5912C2.59813 78.5912 1.60696 77.6 1.60696 76.3774ZM19.7604 76.3774H20.1755V76.7925H19.7604V76.3774ZM19.7604 61.434H19.3453V61.0189H19.7604V61.434ZM3.8208 75.9623H19.7604V76.7925H3.8208V75.9623ZM19.3453 76.3774V61.434H20.1755V76.3774H19.3453ZM19.7604 61.0189H27.0661V61.8491H19.7604V61.0189Z" fill="url(#paint5_linear_42_2288)"/>
<defs>
<filter id="filter0_dddd_42_2288" x="8.39623" y="25.3396" width="70.2075" height="92.7736" filterUnits="userSpaceOnUse" color-interpolation-filters="sRGB">
<feFlood flood-opacity="0" result="BackgroundImageFix"/>
<feColorMatrix in="SourceAlpha" type="matrix" values="0 0 0 0 0 0 0 0 0 0 0 0 0 0 0 0 0 0 127 0" result="hardAlpha"/>
<feOffset dy="3.32075"/>
<feGaussianBlur stdDeviation="2.49057"/>
<feColorMatrix type="matrix" values="0 0 0 0 0.980392 0 0 0 0 0.541176 0 0 0 0 0 0 0 0 0.26 0"/>
<feBlend mode="normal" in2="BackgroundImageFix" result="effect1_dropShadow_42_2288"/>
<feColorMatrix in="SourceAlpha" type="matrix" values="0 0 0 0 0 0 0 0 0 0 0 0 0 0 0 0 0 0 127 0" result="hardAlpha"/>
<feOffset dy="9.96226"/>
<feGaussianBlur stdDeviation="4.98113"/>
<feColorMatrix type="matrix" values="0 0 0 0 0.980392 0 0 0 0 0.541176 0 0 0 0 0 0 0 0 0.22 0"/>
<feBlend mode="normal" in2="effect1_dropShadow_42_2288" result="effect2_dropShadow_42_2288"/>
<feColorMatrix in="SourceAlpha" type="matrix" values="0 0 0 0 0 0 0 0 0 0 0 0 0 0 0 0 0 0 127 0" result="hardAlpha"/>
<feOffset dy="23.2453"/>
<feGaussianBlur stdDeviation="6.64151"/>
<feColorMatrix type="matrix" values="0 0 0 0 0.980392 0 0 0 0 0.541176 0 0 0 0 0 0 0 0 0.13 0"/>
<feBlend mode="normal" in2="effect2_dropShadow_42_2288" result="effect3_dropShadow_42_2288"/>
<feColorMatrix in="SourceAlpha" type="matrix" values="0 0 0 0 0 0 0 0 0 0 0 0 0 0 0 0 0 0 127 0" result="hardAlpha"/>
<feOffset dy="41.5094"/>
<feGaussianBlur stdDeviation="8.30189"/>
<feColorMatrix type="matrix" values="0 0 0 0 0.980392 0 0 0 0 0.541176 0 0 0 0 0 0 0 0 0.04 0"/>
<feBlend mode="normal" in2="effect3_dropShadow_42_2288" result="effect4_dropShadow_42_2288"/>
<feBlend mode="normal" in="SourceGraphic" in2="effect4_dropShadow_42_2288" result="shape"/>
</filter>
<radialGradient id="paint0_radial_42_2288" cx="0" cy="0" r="1" gradientUnits="userSpaceOnUse" gradientTransform="translate(43.5 40.2) rotate(62.275) scale(22.3681 30.0103)">
<stop stop-color="white" stop-opacity="0"/>
<stop offset="1" stop-color="white"/>
</radialGradient>
<radialGradient id="paint1_radial_42_2288" cx="0" cy="0" r="1" gradientUnits="userSpaceOnUse" gradientTransform="translate(43.5 40.2) rotate(62.275) scale(22.3681 30.0103)">
<stop stop-color="white" stop-opacity="0"/>
<stop offset="1" stop-color="white"/>
</radialGradient>
<linearGradient id="paint2_linear_42_2288" x1="3.8208" y1="9.96228" x2="32.3314" y2="28.3758" gradientUnits="userSpaceOnUse">
<stop stop-color="#D4D2E3"/>
<stop offset="1" stop-color="#D4D2E3" stop-opacity="0"/>
</linearGradient>
<linearGradient id="paint3_linear_42_2288" x1="81.0284" y1="78.0377" x2="65.9605" y2="51.5566" gradientUnits="userSpaceOnUse">
<stop stop-color="#D4D2E3"/>
<stop offset="1" stop-color="#D4D2E3" stop-opacity="0"/>
</linearGradient>
<linearGradient id="paint4_linear_42_2288" x1="83.5189" y1="29.0566" x2="53.6321" y2="36.5283" gradientUnits="userSpaceOnUse">
<stop stop-color="#D4D2E3"/>
<stop offset="1" stop-color="#D4D2E3" stop-opacity="0"/>
</linearGradient>
<linearGradient id="paint5_linear_42_2288" x1="3.8208" y1="76.3774" x2="27.0661" y2="61.434" gradientUnits="userSpaceOnUse">
<stop stop-color="#D4D2E3"/>
<stop offset="1" stop-color="#D4D2E3" stop-opacity="0"/>
</linearGradient>
</defs>
</svg>
