<svg width="64" height="102" viewBox="0 0 64 102" fill="none" xmlns="http://www.w3.org/2000/svg">
<rect width="64" height="64" fill="white"/>
<g filter="url(#filter0_dddd_68_6390)">
<path d="M36.9268 21C38.536 21 40.084 21.6478 41.2228 22.8101C42.3628 23.97 43 25.5344 43 27.1722V36.8278C43 40.2378 40.276 43 36.9268 43H25.072C21.7228 43 19 40.2378 19 36.8278V27.1722C19 23.7622 21.7108 21 25.072 21H36.9268ZM38.284 27.3556C38.032 27.3421 37.792 27.4289 37.6108 27.6L32.2 32C31.504 32.5879 30.5068 32.5879 29.8 32L24.4 27.6C24.0268 27.3189 23.5108 27.3556 23.2 27.6856C22.876 28.0156 22.84 28.5411 23.1148 28.9078L23.272 29.0667L28.732 33.4056C29.404 33.9433 30.2188 34.2367 31.072 34.2367C31.9228 34.2367 32.752 33.9433 33.4228 33.4056L38.836 28.9933L38.932 28.8956C39.2188 28.5411 39.2188 28.0278 38.9188 27.6733C38.752 27.4912 38.5228 27.38 38.284 27.3556Z" fill="black"/>
<path d="M36.9268 21C38.536 21 40.084 21.6478 41.2228 22.8101C42.3628 23.97 43 25.5344 43 27.1722V36.8278C43 40.2378 40.276 43 36.9268 43H25.072C21.7228 43 19 40.2378 19 36.8278V27.1722C19 23.7622 21.7108 21 25.072 21H36.9268ZM38.284 27.3556C38.032 27.3421 37.792 27.4289 37.6108 27.6L32.2 32C31.504 32.5879 30.5068 32.5879 29.8 32L24.4 27.6C24.0268 27.3189 23.5108 27.3556 23.2 27.6856C22.876 28.0156 22.84 28.5411 23.1148 28.9078L23.272 29.0667L28.732 33.4056C29.404 33.9433 30.2188 34.2367 31.072 34.2367C31.9228 34.2367 32.752 33.9433 33.4228 33.4056L38.836 28.9933L38.932 28.8956C39.2188 28.5411 39.2188 28.0278 38.9188 27.6733C38.752 27.4912 38.5228 27.38 38.284 27.3556Z" fill="#F76300"/>
<path d="M36.9268 21C38.536 21 40.084 21.6478 41.2228 22.8101C42.3628 23.97 43 25.5344 43 27.1722V36.8278C43 40.2378 40.276 43 36.9268 43H25.072C21.7228 43 19 40.2378 19 36.8278V27.1722C19 23.7622 21.7108 21 25.072 21H36.9268ZM38.284 27.3556C38.032 27.3421 37.792 27.4289 37.6108 27.6L32.2 32C31.504 32.5879 30.5068 32.5879 29.8 32L24.4 27.6C24.0268 27.3189 23.5108 27.3556 23.2 27.6856C22.876 28.0156 22.84 28.5411 23.1148 28.9078L23.272 29.0667L28.732 33.4056C29.404 33.9433 30.2188 34.2367 31.072 34.2367C31.9228 34.2367 32.752 33.9433 33.4228 33.4056L38.836 28.9933L38.932 28.8956C39.2188 28.5411 39.2188 28.0278 38.9188 27.6733C38.752 27.4912 38.5228 27.38 38.284 27.3556Z" fill="url(#paint0_radial_68_6390)" style="mix-blend-mode:overlay"/>
</g>
<path d="M0.202179 7.24536C0.202179 8.46803 1.19335 9.4592 2.41602 9.4592C3.63868 9.4592 4.62985 8.46803 4.62985 7.24536C4.62985 6.02269 3.63868 5.03152 2.41602 5.03152C1.19335 5.03152 0.202179 6.02269 0.202179 7.24536ZM14.0085 7.24536H14.4236V6.83027H14.0085V7.24536ZM14.0085 26.5661H13.5934V26.9812H14.0085V26.5661ZM2.41602 7.66046H14.0085V6.83027H2.41602V7.66046ZM13.5934 7.24536V26.5661H14.4236V7.24536H13.5934ZM14.0085 26.9812H19.3217V26.151H14.0085V26.9812Z" fill="url(#paint1_linear_68_6390)"/>
<path d="M60.377 58.9685C59.1543 58.9685 58.1631 57.9773 58.1631 56.7546C58.1631 55.532 59.1543 54.5408 60.377 54.5408C61.5996 54.5408 62.5908 55.532 62.5908 56.7546C62.5908 57.9773 61.5996 58.9685 60.377 58.9685ZM60.377 45.1622L60.377 44.7471L60.792 44.7471L60.792 45.1622L60.377 45.1622ZM43.4713 45.1622L43.4713 45.5773L43.0562 45.5773L43.0562 45.1622L43.4713 45.1622ZM59.9619 56.7546L59.9619 45.1622L60.792 45.1622L60.792 56.7546L59.9619 56.7546ZM60.377 45.5773L43.4713 45.5773L43.4713 44.7471L60.377 44.7471L60.377 45.5773ZM43.0562 45.1622L43.0562 39.849L43.8864 39.849L43.8864 45.1622L43.0562 45.1622Z" fill="url(#paint2_linear_68_6390)"/>
<path d="M62.5908 15.698C62.5908 16.9207 61.5996 17.9118 60.377 17.9118C59.1543 17.9118 58.1631 16.9207 58.1631 15.698C58.1631 14.4753 59.1543 13.4842 60.377 13.4842C61.5996 13.4842 62.5908 14.4753 62.5908 15.698ZM48.7845 15.698H48.3694V15.2829H48.7845V15.698ZM48.7845 26.5659H49.1996V26.981H48.7845V26.5659ZM60.377 16.1131H48.7845V15.2829H60.377V16.1131ZM49.1996 15.698V26.5659H48.3694V15.698H49.1996ZM48.7845 26.981H43.4713V26.1508H48.7845V26.981Z" fill="url(#paint3_linear_68_6390)"/>
<path d="M0.202179 55.5471C0.202179 54.3245 1.19335 53.3333 2.41602 53.3333C3.63868 53.3333 4.62985 54.3245 4.62985 55.5471C4.62985 56.7698 3.63868 57.761 2.41602 57.761C1.19335 57.761 0.202179 56.7698 0.202179 55.5471ZM14.0085 55.5471H14.4236V55.9622H14.0085V55.5471ZM14.0085 44.6792H13.5934V44.2641H14.0085V44.6792ZM2.41602 55.132H14.0085V55.9622H2.41602V55.132ZM13.5934 55.5471V44.6792H14.4236V55.5471H13.5934ZM14.0085 44.2641H19.3217V45.0943H14.0085V44.2641Z" fill="url(#paint4_linear_68_6390)"/>
<defs>
<filter id="filter0_dddd_68_6390" x="2.39623" y="19.3396" width="57.2075" height="81.7736" filterUnits="userSpaceOnUse" color-interpolation-filters="sRGB">
<feFlood flood-opacity="0" result="BackgroundImageFix"/>
<feColorMatrix in="SourceAlpha" type="matrix" values="0 0 0 0 0 0 0 0 0 0 0 0 0 0 0 0 0 0 127 0" result="hardAlpha"/>
<feOffset dy="3.32075"/>
<feGaussianBlur stdDeviation="2.49057"/>
<feColorMatrix type="matrix" values="0 0 0 0 0.980392 0 0 0 0 0.541176 0 0 0 0 0 0 0 0 0.26 0"/>
<feBlend mode="normal" in2="BackgroundImageFix" result="effect1_dropShadow_68_6390"/>
<feColorMatrix in="SourceAlpha" type="matrix" values="0 0 0 0 0 0 0 0 0 0 0 0 0 0 0 0 0 0 127 0" result="hardAlpha"/>
<feOffset dy="9.96226"/>
<feGaussianBlur stdDeviation="4.98113"/>
<feColorMatrix type="matrix" values="0 0 0 0 0.980392 0 0 0 0 0.541176 0 0 0 0 0 0 0 0 0.22 0"/>
<feBlend mode="normal" in2="effect1_dropShadow_68_6390" result="effect2_dropShadow_68_6390"/>
<feColorMatrix in="SourceAlpha" type="matrix" values="0 0 0 0 0 0 0 0 0 0 0 0 0 0 0 0 0 0 127 0" result="hardAlpha"/>
<feOffset dy="23.2453"/>
<feGaussianBlur stdDeviation="6.64151"/>
<feColorMatrix type="matrix" values="0 0 0 0 0.980392 0 0 0 0 0.541176 0 0 0 0 0 0 0 0 0.13 0"/>
<feBlend mode="normal" in2="effect2_dropShadow_68_6390" result="effect3_dropShadow_68_6390"/>
<feColorMatrix in="SourceAlpha" type="matrix" values="0 0 0 0 0 0 0 0 0 0 0 0 0 0 0 0 0 0 127 0" result="hardAlpha"/>
<feOffset dy="41.5094"/>
<feGaussianBlur stdDeviation="8.30189"/>
<feColorMatrix type="matrix" values="0 0 0 0 0.980392 0 0 0 0 0.541176 0 0 0 0 0 0 0 0 0.04 0"/>
<feBlend mode="normal" in2="effect3_dropShadow_68_6390" result="effect4_dropShadow_68_6390"/>
<feBlend mode="normal" in="SourceGraphic" in2="effect4_dropShadow_68_6390" result="shape"/>
</filter>
<radialGradient id="paint0_radial_68_6390" cx="0" cy="0" r="1" gradientUnits="userSpaceOnUse" gradientTransform="translate(31 29.8) rotate(62.9165) scale(14.8257 19.5795)">
<stop stop-color="white" stop-opacity="0"/>
<stop offset="1" stop-color="white"/>
</radialGradient>
<linearGradient id="paint1_linear_68_6390" x1="2.41602" y1="7.24536" x2="23.151" y2="20.637" gradientUnits="userSpaceOnUse">
<stop stop-color="#D4D2E3"/>
<stop offset="1" stop-color="#D4D2E3" stop-opacity="0"/>
</linearGradient>
<linearGradient id="paint2_linear_68_6390" x1="58.5656" y1="56.7546" x2="47.6072" y2="37.4956" gradientUnits="userSpaceOnUse">
<stop stop-color="#D4D2E3"/>
<stop offset="1" stop-color="#D4D2E3" stop-opacity="0"/>
</linearGradient>
<linearGradient id="paint3_linear_68_6390" x1="60.377" y1="21.132" x2="38.6411" y2="26.5659" gradientUnits="userSpaceOnUse">
<stop stop-color="#D4D2E3"/>
<stop offset="1" stop-color="#D4D2E3" stop-opacity="0"/>
</linearGradient>
<linearGradient id="paint4_linear_68_6390" x1="2.41602" y1="55.5471" x2="19.3217" y2="44.6792" gradientUnits="userSpaceOnUse">
<stop stop-color="#D4D2E3"/>
<stop offset="1" stop-color="#D4D2E3" stop-opacity="0"/>
</linearGradient>
</defs>
</svg>
