<svg width="64" height="102" viewBox="0 0 64 102" fill="none" xmlns="http://www.w3.org/2000/svg">
<rect width="64" height="64" fill="white"/>
<g filter="url(#filter0_dddd_68_6252)">
<path fill-rule="evenodd" clip-rule="evenodd" d="M36.5746 21.6576V19.8471C36.5746 19.3795 36.1964 19 35.7305 19C35.2646 19 34.8865 19.3795 34.8865 19.8471V23.5325C34.8865 23.8261 35.0452 24.0735 35.2725 24.2248C35.1386 24.3152 34.9867 24.3795 34.8133 24.3795C34.3474 24.3795 33.9693 24 33.9693 23.5325V21.0861C33.0668 20.9777 32.0832 20.9223 30.9994 20.9223C29.7233 20.9223 28.5855 20.9991 27.5625 21.1538V19.8471C27.5625 19.3795 27.1844 19 26.7185 19C26.2526 19 25.8745 19.3795 25.8745 19.8471V23.5325C25.8745 23.8261 26.0331 24.0735 26.2605 24.2248C26.1266 24.3152 25.9746 24.3795 25.8013 24.3795C25.3354 24.3795 24.9573 24 24.9573 23.5325V21.8044C22.5557 22.7339 21.1468 24.4631 20.4805 27.2167H41.5195C40.8127 24.296 39.2507 22.5431 36.5746 21.6576Z" fill="black"/>
<path fill-rule="evenodd" clip-rule="evenodd" d="M36.5746 21.6576V19.8471C36.5746 19.3795 36.1964 19 35.7305 19C35.2646 19 34.8865 19.3795 34.8865 19.8471V23.5325C34.8865 23.8261 35.0452 24.0735 35.2725 24.2248C35.1386 24.3152 34.9867 24.3795 34.8133 24.3795C34.3474 24.3795 33.9693 24 33.9693 23.5325V21.0861C33.0668 20.9777 32.0832 20.9223 30.9994 20.9223C29.7233 20.9223 28.5855 20.9991 27.5625 21.1538V19.8471C27.5625 19.3795 27.1844 19 26.7185 19C26.2526 19 25.8745 19.3795 25.8745 19.8471V23.5325C25.8745 23.8261 26.0331 24.0735 26.2605 24.2248C26.1266 24.3152 25.9746 24.3795 25.8013 24.3795C25.3354 24.3795 24.9573 24 24.9573 23.5325V21.8044C22.5557 22.7339 21.1468 24.4631 20.4805 27.2167H41.5195C40.8127 24.296 39.2507 22.5431 36.5746 21.6576Z" fill="#F76300"/>
<path fill-rule="evenodd" clip-rule="evenodd" d="M36.5746 21.6576V19.8471C36.5746 19.3795 36.1964 19 35.7305 19C35.2646 19 34.8865 19.3795 34.8865 19.8471V23.5325C34.8865 23.8261 35.0452 24.0735 35.2725 24.2248C35.1386 24.3152 34.9867 24.3795 34.8133 24.3795C34.3474 24.3795 33.9693 24 33.9693 23.5325V21.0861C33.0668 20.9777 32.0832 20.9223 30.9994 20.9223C29.7233 20.9223 28.5855 20.9991 27.5625 21.1538V19.8471C27.5625 19.3795 27.1844 19 26.7185 19C26.2526 19 25.8745 19.3795 25.8745 19.8471V23.5325C25.8745 23.8261 26.0331 24.0735 26.2605 24.2248C26.1266 24.3152 25.9746 24.3795 25.8013 24.3795C25.3354 24.3795 24.9573 24 24.9573 23.5325V21.8044C22.5557 22.7339 21.1468 24.4631 20.4805 27.2167H41.5195C40.8127 24.296 39.2507 22.5431 36.5746 21.6576Z" fill="url(#paint0_radial_68_6252)" style="mix-blend-mode:overlay"/>
<path fill-rule="evenodd" clip-rule="evenodd" d="M35.9657 33.3568C35.4998 33.3568 35.1172 32.9773 35.1172 32.5097C35.1172 32.0421 35.4897 31.6626 35.9556 31.6626H35.9657C36.4316 31.6626 36.8098 32.0421 36.8098 32.5097C36.8098 32.9773 36.4316 33.3568 35.9657 33.3568ZM35.9657 37.7086C35.4998 37.7086 35.1172 37.3291 35.1172 36.8615C35.1172 36.3928 35.4897 36.0144 35.9556 36.0144H35.9657C36.4316 36.0144 36.8098 36.3928 36.8098 36.8615C36.8098 37.3291 36.4316 37.7086 35.9657 37.7086ZM31.0152 33.3568C30.5493 33.3568 30.1655 32.9773 30.1655 32.5097C30.1655 32.0421 30.5392 31.6626 31.0051 31.6626H31.0152C31.4811 31.6626 31.8592 32.0421 31.8592 32.5097C31.8592 32.9773 31.4811 33.3568 31.0152 33.3568ZM31.0152 37.7086C30.5493 37.7086 30.1655 37.3291 30.1655 36.8615C30.1655 36.3928 30.5392 36.0144 31.0051 36.0144H31.0152C31.4811 36.0144 31.8592 36.3928 31.8592 36.8615C31.8592 37.3291 31.4811 37.7086 31.0152 37.7086ZM26.0545 33.3568C25.5886 33.3568 25.2049 32.9773 25.2049 32.5097C25.2049 32.0421 25.5785 31.6626 26.0444 31.6626H26.0545C26.5204 31.6626 26.8986 32.0421 26.8986 32.5097C26.8986 32.9773 26.5204 33.3568 26.0545 33.3568ZM26.0545 37.7086C25.5886 37.7086 25.2049 37.3291 25.2049 36.8615C25.2049 36.3928 25.5785 36.0144 26.0444 36.0144H26.0545C26.5204 36.0144 26.8986 36.3928 26.8986 36.8615C26.8986 37.3291 26.5204 37.7086 26.0545 37.7086ZM41.8256 28.9102H20.1744C20.0596 29.8363 20 30.8449 20 31.9619C20 40.1109 22.8787 43 30.9994 43C39.1213 43 42 40.1109 42 31.9619C42 30.8449 41.9404 29.8363 41.8256 28.9102Z" fill="black"/>
<path fill-rule="evenodd" clip-rule="evenodd" d="M35.9657 33.3568C35.4998 33.3568 35.1172 32.9773 35.1172 32.5097C35.1172 32.0421 35.4897 31.6626 35.9556 31.6626H35.9657C36.4316 31.6626 36.8098 32.0421 36.8098 32.5097C36.8098 32.9773 36.4316 33.3568 35.9657 33.3568ZM35.9657 37.7086C35.4998 37.7086 35.1172 37.3291 35.1172 36.8615C35.1172 36.3928 35.4897 36.0144 35.9556 36.0144H35.9657C36.4316 36.0144 36.8098 36.3928 36.8098 36.8615C36.8098 37.3291 36.4316 37.7086 35.9657 37.7086ZM31.0152 33.3568C30.5493 33.3568 30.1655 32.9773 30.1655 32.5097C30.1655 32.0421 30.5392 31.6626 31.0051 31.6626H31.0152C31.4811 31.6626 31.8592 32.0421 31.8592 32.5097C31.8592 32.9773 31.4811 33.3568 31.0152 33.3568ZM31.0152 37.7086C30.5493 37.7086 30.1655 37.3291 30.1655 36.8615C30.1655 36.3928 30.5392 36.0144 31.0051 36.0144H31.0152C31.4811 36.0144 31.8592 36.3928 31.8592 36.8615C31.8592 37.3291 31.4811 37.7086 31.0152 37.7086ZM26.0545 33.3568C25.5886 33.3568 25.2049 32.9773 25.2049 32.5097C25.2049 32.0421 25.5785 31.6626 26.0444 31.6626H26.0545C26.5204 31.6626 26.8986 32.0421 26.8986 32.5097C26.8986 32.9773 26.5204 33.3568 26.0545 33.3568ZM26.0545 37.7086C25.5886 37.7086 25.2049 37.3291 25.2049 36.8615C25.2049 36.3928 25.5785 36.0144 26.0444 36.0144H26.0545C26.5204 36.0144 26.8986 36.3928 26.8986 36.8615C26.8986 37.3291 26.5204 37.7086 26.0545 37.7086ZM41.8256 28.9102H20.1744C20.0596 29.8363 20 30.8449 20 31.9619C20 40.1109 22.8787 43 30.9994 43C39.1213 43 42 40.1109 42 31.9619C42 30.8449 41.9404 29.8363 41.8256 28.9102Z" fill="#F76300"/>
<path fill-rule="evenodd" clip-rule="evenodd" d="M35.9657 33.3568C35.4998 33.3568 35.1172 32.9773 35.1172 32.5097C35.1172 32.0421 35.4897 31.6626 35.9556 31.6626H35.9657C36.4316 31.6626 36.8098 32.0421 36.8098 32.5097C36.8098 32.9773 36.4316 33.3568 35.9657 33.3568ZM35.9657 37.7086C35.4998 37.7086 35.1172 37.3291 35.1172 36.8615C35.1172 36.3928 35.4897 36.0144 35.9556 36.0144H35.9657C36.4316 36.0144 36.8098 36.3928 36.8098 36.8615C36.8098 37.3291 36.4316 37.7086 35.9657 37.7086ZM31.0152 33.3568C30.5493 33.3568 30.1655 32.9773 30.1655 32.5097C30.1655 32.0421 30.5392 31.6626 31.0051 31.6626H31.0152C31.4811 31.6626 31.8592 32.0421 31.8592 32.5097C31.8592 32.9773 31.4811 33.3568 31.0152 33.3568ZM31.0152 37.7086C30.5493 37.7086 30.1655 37.3291 30.1655 36.8615C30.1655 36.3928 30.5392 36.0144 31.0051 36.0144H31.0152C31.4811 36.0144 31.8592 36.3928 31.8592 36.8615C31.8592 37.3291 31.4811 37.7086 31.0152 37.7086ZM26.0545 33.3568C25.5886 33.3568 25.2049 32.9773 25.2049 32.5097C25.2049 32.0421 25.5785 31.6626 26.0444 31.6626H26.0545C26.5204 31.6626 26.8986 32.0421 26.8986 32.5097C26.8986 32.9773 26.5204 33.3568 26.0545 33.3568ZM26.0545 37.7086C25.5886 37.7086 25.2049 37.3291 25.2049 36.8615C25.2049 36.3928 25.5785 36.0144 26.0444 36.0144H26.0545C26.5204 36.0144 26.8986 36.3928 26.8986 36.8615C26.8986 37.3291 26.5204 37.7086 26.0545 37.7086ZM41.8256 28.9102H20.1744C20.0596 29.8363 20 30.8449 20 31.9619C20 40.1109 22.8787 43 30.9994 43C39.1213 43 42 40.1109 42 31.9619C42 30.8449 41.9404 29.8363 41.8256 28.9102Z" fill="url(#paint1_radial_68_6252)" style="mix-blend-mode:overlay"/>
</g>
<path d="M0.202179 7.24536C0.202179 8.46803 1.19335 9.4592 2.41602 9.4592C3.63868 9.4592 4.62985 8.46803 4.62985 7.24536C4.62985 6.02269 3.63868 5.03152 2.41602 5.03152C1.19335 5.03152 0.202179 6.02269 0.202179 7.24536ZM14.0085 7.24536H14.4236V6.83027H14.0085V7.24536ZM14.0085 26.5661H13.5934V26.9812H14.0085V26.5661ZM2.41602 7.66046H14.0085V6.83027H2.41602V7.66046ZM13.5934 7.24536V26.5661H14.4236V7.24536H13.5934ZM14.0085 26.9812H19.3217V26.151H14.0085V26.9812Z" fill="url(#paint2_linear_68_6252)"/>
<path d="M60.377 58.9685C59.1543 58.9685 58.1631 57.9773 58.1631 56.7546C58.1631 55.532 59.1543 54.5408 60.377 54.5408C61.5996 54.5408 62.5908 55.532 62.5908 56.7546C62.5908 57.9773 61.5996 58.9685 60.377 58.9685ZM60.377 45.1622L60.377 44.7471L60.792 44.7471L60.792 45.1622L60.377 45.1622ZM43.4713 45.1622L43.4713 45.5773L43.0562 45.5773L43.0562 45.1622L43.4713 45.1622ZM59.9619 56.7546L59.9619 45.1622L60.792 45.1622L60.792 56.7546L59.9619 56.7546ZM60.377 45.5773L43.4713 45.5773L43.4713 44.7471L60.377 44.7471L60.377 45.5773ZM43.0562 45.1622L43.0562 39.849L43.8864 39.849L43.8864 45.1622L43.0562 45.1622Z" fill="url(#paint3_linear_68_6252)"/>
<path d="M62.5908 15.698C62.5908 16.9207 61.5996 17.9118 60.377 17.9118C59.1543 17.9118 58.1631 16.9207 58.1631 15.698C58.1631 14.4753 59.1543 13.4842 60.377 13.4842C61.5996 13.4842 62.5908 14.4753 62.5908 15.698ZM48.7845 15.698H48.3694V15.2829H48.7845V15.698ZM48.7845 26.5659H49.1996V26.981H48.7845V26.5659ZM60.377 16.1131H48.7845V15.2829H60.377V16.1131ZM49.1996 15.698V26.5659H48.3694V15.698H49.1996ZM48.7845 26.981H43.4713V26.1508H48.7845V26.981Z" fill="url(#paint4_linear_68_6252)"/>
<path d="M0.202179 55.5471C0.202179 54.3245 1.19335 53.3333 2.41602 53.3333C3.63868 53.3333 4.62985 54.3245 4.62985 55.5471C4.62985 56.7698 3.63868 57.761 2.41602 57.761C1.19335 57.761 0.202179 56.7698 0.202179 55.5471ZM14.0085 55.5471H14.4236V55.9622H14.0085V55.5471ZM14.0085 44.6792H13.5934V44.2641H14.0085V44.6792ZM2.41602 55.132H14.0085V55.9622H2.41602V55.132ZM13.5934 55.5471V44.6792H14.4236V55.5471H13.5934ZM14.0085 44.2641H19.3217V45.0943H14.0085V44.2641Z" fill="url(#paint5_linear_68_6252)"/>
<defs>
<filter id="filter0_dddd_68_6252" x="3.39623" y="17.3396" width="55.2075" height="83.7736" filterUnits="userSpaceOnUse" color-interpolation-filters="sRGB">
<feFlood flood-opacity="0" result="BackgroundImageFix"/>
<feColorMatrix in="SourceAlpha" type="matrix" values="0 0 0 0 0 0 0 0 0 0 0 0 0 0 0 0 0 0 127 0" result="hardAlpha"/>
<feOffset dy="3.32075"/>
<feGaussianBlur stdDeviation="2.49057"/>
<feColorMatrix type="matrix" values="0 0 0 0 0.980392 0 0 0 0 0.541176 0 0 0 0 0 0 0 0 0.26 0"/>
<feBlend mode="normal" in2="BackgroundImageFix" result="effect1_dropShadow_68_6252"/>
<feColorMatrix in="SourceAlpha" type="matrix" values="0 0 0 0 0 0 0 0 0 0 0 0 0 0 0 0 0 0 127 0" result="hardAlpha"/>
<feOffset dy="9.96226"/>
<feGaussianBlur stdDeviation="4.98113"/>
<feColorMatrix type="matrix" values="0 0 0 0 0.980392 0 0 0 0 0.541176 0 0 0 0 0 0 0 0 0.22 0"/>
<feBlend mode="normal" in2="effect1_dropShadow_68_6252" result="effect2_dropShadow_68_6252"/>
<feColorMatrix in="SourceAlpha" type="matrix" values="0 0 0 0 0 0 0 0 0 0 0 0 0 0 0 0 0 0 127 0" result="hardAlpha"/>
<feOffset dy="23.2453"/>
<feGaussianBlur stdDeviation="6.64151"/>
<feColorMatrix type="matrix" values="0 0 0 0 0.980392 0 0 0 0 0.541176 0 0 0 0 0 0 0 0 0.13 0"/>
<feBlend mode="normal" in2="effect2_dropShadow_68_6252" result="effect3_dropShadow_68_6252"/>
<feColorMatrix in="SourceAlpha" type="matrix" values="0 0 0 0 0 0 0 0 0 0 0 0 0 0 0 0 0 0 127 0" result="hardAlpha"/>
<feOffset dy="41.5094"/>
<feGaussianBlur stdDeviation="8.30189"/>
<feColorMatrix type="matrix" values="0 0 0 0 0.980392 0 0 0 0 0.541176 0 0 0 0 0 0 0 0 0.04 0"/>
<feBlend mode="normal" in2="effect3_dropShadow_68_6252" result="effect4_dropShadow_68_6252"/>
<feBlend mode="normal" in="SourceGraphic" in2="effect4_dropShadow_68_6252" result="shape"/>
</filter>
<radialGradient id="paint0_radial_68_6252" cx="0" cy="0" r="1" gradientUnits="userSpaceOnUse" gradientTransform="translate(31 28.6) rotate(66.7474) scale(15.6731 18.521)">
<stop stop-color="white" stop-opacity="0"/>
<stop offset="1" stop-color="white"/>
</radialGradient>
<radialGradient id="paint1_radial_68_6252" cx="0" cy="0" r="1" gradientUnits="userSpaceOnUse" gradientTransform="translate(31 28.6) rotate(66.7474) scale(15.6731 18.521)">
<stop stop-color="white" stop-opacity="0"/>
<stop offset="1" stop-color="white"/>
</radialGradient>
<linearGradient id="paint2_linear_68_6252" x1="2.41602" y1="7.24536" x2="23.151" y2="20.637" gradientUnits="userSpaceOnUse">
<stop stop-color="#D4D2E3"/>
<stop offset="1" stop-color="#D4D2E3" stop-opacity="0"/>
</linearGradient>
<linearGradient id="paint3_linear_68_6252" x1="58.5656" y1="56.7546" x2="47.6072" y2="37.4956" gradientUnits="userSpaceOnUse">
<stop stop-color="#D4D2E3"/>
<stop offset="1" stop-color="#D4D2E3" stop-opacity="0"/>
</linearGradient>
<linearGradient id="paint4_linear_68_6252" x1="60.377" y1="21.132" x2="38.6411" y2="26.5659" gradientUnits="userSpaceOnUse">
<stop stop-color="#D4D2E3"/>
<stop offset="1" stop-color="#D4D2E3" stop-opacity="0"/>
</linearGradient>
<linearGradient id="paint5_linear_68_6252" x1="2.41602" y1="55.5471" x2="19.3217" y2="44.6792" gradientUnits="userSpaceOnUse">
<stop stop-color="#D4D2E3"/>
<stop offset="1" stop-color="#D4D2E3" stop-opacity="0"/>
</linearGradient>
</defs>
</svg>
