<svg width="88" height="118" viewBox="0 0 88 118" fill="none" xmlns="http://www.w3.org/2000/svg">
<rect width="88" height="88" fill="white"/>
<g filter="url(#filter0_dddd_17_409)">
<path d="M51.5258 29C57.274 29 60.6666 32.3077 60.6666 37.9697H53.6147V38.0274C50.3419 38.0274 47.6888 40.6141 47.6888 43.805C47.6888 46.9959 50.3419 49.5826 53.6147 49.5826H60.6666V50.1026C60.6666 55.6923 57.274 59 51.5258 59H36.474C30.7258 59 27.3333 55.6923 27.3333 50.1026V37.8974C27.3333 32.3077 30.7258 29 36.474 29H51.5258ZM59.4221 40.454C60.1094 40.454 60.6666 40.9972 60.6666 41.6673V45.8849C60.6586 46.5518 60.1061 47.0904 59.4221 47.0982H53.7481C52.0912 47.12 50.6424 46.014 50.2666 44.4405C50.0784 43.4638 50.3426 42.4559 50.9884 41.687C51.6342 40.9181 52.5955 40.4668 53.6147 40.454H59.4221ZM54.4147 42.4039H53.8666C53.53 42.4001 53.2059 42.5277 52.9666 42.7584C52.7272 42.9891 52.5925 43.3035 52.5925 43.6317C52.5925 44.3201 53.1605 44.8804 53.8666 44.8883H54.4147C55.1184 44.8883 55.6888 44.3322 55.6888 43.6461C55.6888 42.9601 55.1184 42.4039 54.4147 42.4039ZM44.637 35.4853H35.2295C34.5316 35.4853 33.9636 36.0327 33.9555 36.713C33.9555 37.4015 34.5235 37.9618 35.2295 37.9697H44.637C45.3406 37.9697 45.911 37.4135 45.911 36.7275C45.911 36.0415 45.3406 35.4853 44.637 35.4853Z" fill="black"/>
<path d="M51.5258 29C57.274 29 60.6666 32.3077 60.6666 37.9697H53.6147V38.0274C50.3419 38.0274 47.6888 40.6141 47.6888 43.805C47.6888 46.9959 50.3419 49.5826 53.6147 49.5826H60.6666V50.1026C60.6666 55.6923 57.274 59 51.5258 59H36.474C30.7258 59 27.3333 55.6923 27.3333 50.1026V37.8974C27.3333 32.3077 30.7258 29 36.474 29H51.5258ZM59.4221 40.454C60.1094 40.454 60.6666 40.9972 60.6666 41.6673V45.8849C60.6586 46.5518 60.1061 47.0904 59.4221 47.0982H53.7481C52.0912 47.12 50.6424 46.014 50.2666 44.4405C50.0784 43.4638 50.3426 42.4559 50.9884 41.687C51.6342 40.9181 52.5955 40.4668 53.6147 40.454H59.4221ZM54.4147 42.4039H53.8666C53.53 42.4001 53.2059 42.5277 52.9666 42.7584C52.7272 42.9891 52.5925 43.3035 52.5925 43.6317C52.5925 44.3201 53.1605 44.8804 53.8666 44.8883H54.4147C55.1184 44.8883 55.6888 44.3322 55.6888 43.6461C55.6888 42.9601 55.1184 42.4039 54.4147 42.4039ZM44.637 35.4853H35.2295C34.5316 35.4853 33.9636 36.0327 33.9555 36.713C33.9555 37.4015 34.5235 37.9618 35.2295 37.9697H44.637C45.3406 37.9697 45.911 37.4135 45.911 36.7275C45.911 36.0415 45.3406 35.4853 44.637 35.4853Z" fill="#F76300"/>
<path d="M51.5258 29C57.274 29 60.6666 32.3077 60.6666 37.9697H53.6147V38.0274C50.3419 38.0274 47.6888 40.6141 47.6888 43.805C47.6888 46.9959 50.3419 49.5826 53.6147 49.5826H60.6666V50.1026C60.6666 55.6923 57.274 59 51.5258 59H36.474C30.7258 59 27.3333 55.6923 27.3333 50.1026V37.8974C27.3333 32.3077 30.7258 29 36.474 29H51.5258ZM59.4221 40.454C60.1094 40.454 60.6666 40.9972 60.6666 41.6673V45.8849C60.6586 46.5518 60.1061 47.0904 59.4221 47.0982H53.7481C52.0912 47.12 50.6424 46.014 50.2666 44.4405C50.0784 43.4638 50.3426 42.4559 50.9884 41.687C51.6342 40.9181 52.5955 40.4668 53.6147 40.454H59.4221ZM54.4147 42.4039H53.8666C53.53 42.4001 53.2059 42.5277 52.9666 42.7584C52.7272 42.9891 52.5925 43.3035 52.5925 43.6317C52.5925 44.3201 53.1605 44.8804 53.8666 44.8883H54.4147C55.1184 44.8883 55.6888 44.3322 55.6888 43.6461C55.6888 42.9601 55.1184 42.4039 54.4147 42.4039ZM44.637 35.4853H35.2295C34.5316 35.4853 33.9636 36.0327 33.9555 36.713C33.9555 37.4015 34.5235 37.9618 35.2295 37.9697H44.637C45.3406 37.9697 45.911 37.4135 45.911 36.7275C45.911 36.0415 45.3406 35.4853 44.637 35.4853Z" fill="url(#paint0_radial_17_409)" style="mix-blend-mode:overlay"/>
</g>
<path d="M1.10696 9.96228C1.10696 11.1849 2.09813 12.1761 3.3208 12.1761C4.54347 12.1761 5.53464 11.1849 5.53464 9.96228C5.53464 8.73961 4.54347 7.74844 3.3208 7.74844C2.09813 7.74844 1.10696 8.73961 1.10696 9.96228ZM19.2604 9.96228H19.6755V9.54719H19.2604V9.96228ZM19.2604 36.5283H18.8453V36.9434H19.2604V36.5283ZM3.3208 10.3774H19.2604V9.54719H3.3208V10.3774ZM18.8453 9.96228V36.5283H19.6755V9.96228H18.8453ZM19.2604 36.9434H26.5661V36.1132H19.2604V36.9434Z" fill="url(#paint1_linear_17_409)"/>
<path d="M83.0188 80.2516C81.7961 80.2516 80.805 79.2604 80.805 78.0377C80.805 76.8151 81.7961 75.8239 83.0188 75.8239C84.2415 75.8239 85.2326 76.8151 85.2326 78.0377C85.2326 79.2604 84.2415 80.2516 83.0188 80.2516ZM83.0188 62.0981L83.0188 61.683L83.4339 61.683L83.4339 62.0981L83.0188 62.0981ZM59.7735 62.0981L59.7735 62.5132L59.3584 62.5132L59.3584 62.0981L59.7735 62.0981ZM82.6037 78.0377L82.6037 62.0981L83.4339 62.0981L83.4339 78.0377L82.6037 78.0377ZM83.0188 62.5132L59.7735 62.5132L59.7735 61.683L83.0188 61.683L83.0188 62.5132ZM59.3584 62.0981L59.3584 54.7924L60.1886 54.7924L60.1886 62.0981L59.3584 62.0981Z" fill="url(#paint2_linear_17_409)"/>
<path d="M85.2326 21.5849C85.2326 22.8076 84.2415 23.7987 83.0188 23.7987C81.7961 23.7987 80.805 22.8076 80.805 21.5849C80.805 20.3622 81.7961 19.3711 83.0188 19.3711C84.2415 19.3711 85.2326 20.3622 85.2326 21.5849ZM67.0792 21.5849H66.6641V21.1698H67.0792V21.5849ZM67.0792 36.5283H67.4943V36.9434H67.0792V36.5283ZM83.0188 22H67.0792V21.1698H83.0188V22ZM67.4943 21.5849V36.5283H66.6641V21.5849H67.4943ZM67.0792 36.9434H59.7735V36.1132H67.0792V36.9434Z" fill="url(#paint3_linear_17_409)"/>
<path d="M1.10696 76.3774C1.10696 75.1547 2.09813 74.1635 3.3208 74.1635C4.54347 74.1635 5.53464 75.1547 5.53464 76.3774C5.53464 77.6 4.54347 78.5912 3.3208 78.5912C2.09813 78.5912 1.10696 77.6 1.10696 76.3774ZM19.2604 76.3774H19.6755V76.7925H19.2604V76.3774ZM19.2604 61.434H18.8453V61.0189H19.2604V61.434ZM3.3208 75.9623H19.2604V76.7925H3.3208V75.9623ZM18.8453 76.3774V61.434H19.6755V76.3774H18.8453ZM19.2604 61.0189H26.5661V61.8491H19.2604V61.0189Z" fill="url(#paint4_linear_17_409)"/>
<defs>
<filter id="filter0_dddd_17_409" x="10.7295" y="27.3396" width="66.5408" height="89.7736" filterUnits="userSpaceOnUse" color-interpolation-filters="sRGB">
<feFlood flood-opacity="0" result="BackgroundImageFix"/>
<feColorMatrix in="SourceAlpha" type="matrix" values="0 0 0 0 0 0 0 0 0 0 0 0 0 0 0 0 0 0 127 0" result="hardAlpha"/>
<feOffset dy="3.32075"/>
<feGaussianBlur stdDeviation="2.49057"/>
<feColorMatrix type="matrix" values="0 0 0 0 0.980392 0 0 0 0 0.541176 0 0 0 0 0 0 0 0 0.26 0"/>
<feBlend mode="normal" in2="BackgroundImageFix" result="effect1_dropShadow_17_409"/>
<feColorMatrix in="SourceAlpha" type="matrix" values="0 0 0 0 0 0 0 0 0 0 0 0 0 0 0 0 0 0 127 0" result="hardAlpha"/>
<feOffset dy="9.96226"/>
<feGaussianBlur stdDeviation="4.98113"/>
<feColorMatrix type="matrix" values="0 0 0 0 0.980392 0 0 0 0 0.541176 0 0 0 0 0 0 0 0 0.22 0"/>
<feBlend mode="normal" in2="effect1_dropShadow_17_409" result="effect2_dropShadow_17_409"/>
<feColorMatrix in="SourceAlpha" type="matrix" values="0 0 0 0 0 0 0 0 0 0 0 0 0 0 0 0 0 0 127 0" result="hardAlpha"/>
<feOffset dy="23.2453"/>
<feGaussianBlur stdDeviation="6.64151"/>
<feColorMatrix type="matrix" values="0 0 0 0 0.980392 0 0 0 0 0.541176 0 0 0 0 0 0 0 0 0.13 0"/>
<feBlend mode="normal" in2="effect2_dropShadow_17_409" result="effect3_dropShadow_17_409"/>
<feColorMatrix in="SourceAlpha" type="matrix" values="0 0 0 0 0 0 0 0 0 0 0 0 0 0 0 0 0 0 127 0" result="hardAlpha"/>
<feOffset dy="41.5094"/>
<feGaussianBlur stdDeviation="8.30189"/>
<feColorMatrix type="matrix" values="0 0 0 0 0.980392 0 0 0 0 0.541176 0 0 0 0 0 0 0 0 0.04 0"/>
<feBlend mode="normal" in2="effect3_dropShadow_17_409" result="effect4_dropShadow_17_409"/>
<feBlend mode="normal" in="SourceGraphic" in2="effect4_dropShadow_17_409" result="shape"/>
</filter>
<radialGradient id="paint0_radial_17_409" cx="0" cy="0" r="1" gradientUnits="userSpaceOnUse" gradientTransform="translate(43.9999 41) rotate(62.488) scale(20.2951 27.089)">
<stop stop-color="white" stop-opacity="0"/>
<stop offset="1" stop-color="white"/>
</radialGradient>
<linearGradient id="paint1_linear_17_409" x1="3.3208" y1="9.96228" x2="31.8314" y2="28.3758" gradientUnits="userSpaceOnUse">
<stop stop-color="#D4D2E3"/>
<stop offset="1" stop-color="#D4D2E3" stop-opacity="0"/>
</linearGradient>
<linearGradient id="paint2_linear_17_409" x1="80.5282" y1="78.0377" x2="65.4604" y2="51.5566" gradientUnits="userSpaceOnUse">
<stop stop-color="#D4D2E3"/>
<stop offset="1" stop-color="#D4D2E3" stop-opacity="0"/>
</linearGradient>
<linearGradient id="paint3_linear_17_409" x1="83.0188" y1="29.0566" x2="53.132" y2="36.5283" gradientUnits="userSpaceOnUse">
<stop stop-color="#D4D2E3"/>
<stop offset="1" stop-color="#D4D2E3" stop-opacity="0"/>
</linearGradient>
<linearGradient id="paint4_linear_17_409" x1="3.3208" y1="76.3774" x2="26.5661" y2="61.434" gradientUnits="userSpaceOnUse">
<stop stop-color="#D4D2E3"/>
<stop offset="1" stop-color="#D4D2E3" stop-opacity="0"/>
</linearGradient>
</defs>
</svg>
